PathFileType	4	(X/Y/Z)	../Python\walking\Walking03\task.trc
DataRate	CameraRate	NumFrames	NumMarkers	Units	OrigDataRate	OrigDataStartFrame	OrigNumFrames
200.000000	200.000000	4	30	mm	200.000000	503	671
Frame#	Time	CLAV			STRN			RASI			LASI			RTH1			RTH2			RTH3			RTB1			RTB2			RTB3			RD5M			RTOE			LTH1			LTH2			LTB1			LTB2			LTB3			LTOE			LD5M			LTH3			RHEE			RPSI			T10			PE03			PE02			PE01			C7			LPSI			LHEE			RBAK			
		X1	Y1	Z1	X2	Y2	Z2	X3	Y3	Z3	X4	Y4	Z4	X5	Y5	Z5	X6	Y6	Z6	X7	Y7	Z7	X8	Y8	Z8	X9	Y9	Z9	X10	Y10	Z10	X11	Y11	Z11	X12	Y12	Z12	X13	Y13	Z13	X14	Y14	Z14	X15	Y15	Z15	X16	Y16	Z16	X17	Y17	Z17	X18	Y18	Z18	X19	Y19	Z19	X20	Y20	Z20	X21	Y21	Z21	X22	Y22	Z22	X23	Y23	Z23	X24	Y24	Z24	X25	Y25	Z25	X26	Y26	Z26	X27	Y27	Z27	X28	Y28	Z28	X29	Y29	Z29	X30	Y30	Z30	

504	2.515	1937.590576171876	1422.043701171875	178.1017150878907	1983.198852539063	1227.786499023438	189.0545349121094	1961.517578125001	1015.093200683594	324.7255859375001	1952.146728515626	1007.843383789063	47.00148391723634	1988.140625000001	764.216979980469	376.7947082519532	1946.419799804688	721.1802978515627	358.8834533691407	1983.657836914063	688.1014404296877	352.6754760742189	2140.499023437501	392.4842224121096	307.2665100097657	2115.662353515626	336.6408691406251	310.752410888672	2159.121093750001	315.8927612304689	300.4648742675782	2326.034179687501	64.17583465576175	291.9356689453126	2362.330078125001	102.509017944336	254.9803161621095	1797.922485351563	722.3035278320315	29.61965179443361	1761.108886718751	692.8965454101565	47.30461883544923	1673.180908203126	375.6544494628907	84.04661560058597	1635.568847656251	346.6465454101564	99.83324432373053	1673.980346679688	297.848602294922	97.05960083007818	1750.409301757813	30.97042274475099	161.5814208984376	1696.428100585938	20.83472633361817	117.9266815185547	1799.878417968751	644.9458618164065	47.44734573364259	2169.007812500001	27.98409080505373	222.200653076172	1796.416992187501	1059.668090820313	253.2290496826173	1755.490478515626	1257.523193359375	170.5877685546876	1782.050292968751	1047.964233398438	180.0590209960938	1789.248413085938	1047.539428710938	230.9200897216798	1798.542358398438	1107.507568359375	203.4505157470704	1822.934082031251	1516.075439453125	159.7900848388672	1785.572021484376	1062.34375	153.9840698242188	1541.015258789063	73.30451202392581	190.2326965332032	1792.858886718751	1436.329223632813	331.2253417968751	
505	2.52	1944.037963867188	1421.141723632813	178.0609436035157	1989.644897460938	1226.850341796875	188.9410552978516	1968.418823242188	1014.199584960938	324.7862243652345	1958.370727539063	1006.906921386719	46.86721420288087	1993.594726562501	762.5884399414065	377.0406188964845	1951.624877929688	719.9243164062502	358.5199279785157	1988.658081054688	686.5853271484377	352.5116271972657	2148.231445312501	392.0972290039065	306.9836730957032	2124.550292968751	335.7825622558595	310.6290588378907	2168.333251953126	315.9189453125001	300.0342102050782	2340.236572265626	66.97332763671878	290.1607360839845	2375.617675781251	106.1426315307618	252.9700317382814	1802.701782226563	722.1632080078127	29.59266090393068	1765.788452148438	692.9981079101565	47.45540237426759	1675.870239257813	376.3253173828126	84.08158111572268	1638.075317382813	347.5735778808595	99.89617156982428	1676.133911132813	298.501434326172	97.06585693359381	1750.443725585938	30.95697402954103	161.5864715576172	1696.431274414063	20.92709922790528	118.0628509521485	1804.234008789063	644.7872314453127	47.36160278320314	2183.348876953126	28.21248054504396	221.2734222412111	1803.091552734376	1058.780151367188	253.6049346923829	1761.859741210938	1256.619506835938	170.6885223388672	1788.541381835938	1047.058349609375	180.4565429687501	1795.901123046876	1046.643798828125	231.3204956054689	1805.065429687501	1106.6181640625	203.8122100830079	1829.303588867188	1515.130981445313	159.8235015869141	1791.968383789063	1061.415649414063	154.3776550292969	1541.561035156251	74.98843383789065	190.1707458496094	1799.323608398438	1435.489868164063	331.1991271972657	
506	2.525	1950.512207031251	1420.2373046875	178.0331573486329	1996.146484375001	1225.911987304688	188.8334350585938	1975.368530273438	1013.301330566407	324.8600463867189	1964.682373046876	1005.952331542969	46.74177932739259	1999.188598632813	761.0397949218752	377.292205810547	1956.989868164063	718.7339477539065	358.1978149414064	1993.825073242188	685.1566162109377	352.372283935547	2155.787841796876	391.6702575683596	306.7301025390626	2133.172363281251	334.9369201660157	310.4801025390626	2177.248291015626	315.8988037109376	299.6206359863282	2353.713623046876	69.59060668945315	288.4755859375001	2388.256347656251	109.5585479736329	251.1086273193361	1807.546875000001	722.0340576171877	29.56018066406251	1770.537353515626	693.1147460937502	47.60339355468751	1678.625000000001	377.0171813964845	84.08440399169925	1640.646728515626	348.5252075195314	99.92480468750006	1678.347534179688	299.178680419922	97.04051971435553	1750.476562500001	30.93972206115724	161.5896759033204	1696.444824218751	21.00952911376954	118.1828384399415	1808.650634765626	644.6422119140627	47.26120376586915	2197.032226562501	28.45423316955568	220.2492980957032	1809.823364257813	1057.883666992188	253.9748687744142	1768.282226562501	1255.687744140625	170.8091583251954	1795.098144531251	1046.138671875	180.8463287353516	1802.614135742188	1045.73779296875	231.7144470214845	1811.656005859376	1105.71533203125	204.1645965576173	1835.687011718751	1514.173461914063	159.8793182373047	1798.434204101563	1060.46923828125	154.7628326416016	1542.142211914063	76.73818969726565	190.0502471923829	1805.820678710938	1434.624633789063	331.1978454589845	
507	2.53	1957.013916015626	1419.333618164063	178.0192565917969	2002.705688476563	1224.974975585938	188.7331085205079	1982.367187500001	1012.40283203125	324.9476013183595	1971.086059570313	1004.980346679688	46.62611770629884	2004.940063476563	759.584655761719	377.5484619140626	1962.537231445313	717.6169433593752	357.9240112304689	1999.186645507813	683.828063964844	352.2630310058595	2163.165283203126	391.190856933594	306.5067443847657	2141.513183593751	334.0909729003907	310.2991638183595	2185.852050781251	315.8105773925782	299.2248840332032	2366.429443359376	71.96878051757815	286.8958740234376	2400.220947265626	112.6965866088868	249.4199523925782	1812.464233398438	721.9162597656252	29.52354240417482	1775.362060546876	693.2451171875002	47.74903106689455	1681.450927734376	377.729949951172	84.05400848388675	1643.288208007813	349.501678466797	99.91738891601568	1680.625976562501	299.8806762695314	96.98283386230474	1750.507934570313	30.9183807373047	161.5907592773438	1696.468994140626	21.08159065246583	118.2852859497071	1813.136108398438	644.5107421875002	47.14687347412111	2210.016113281251	28.67297172546388	219.1280822753907	1816.614257812501	1056.9814453125	254.3367462158204	1774.760375976563	1254.729125976563	170.9487457275391	1801.723999023438	1045.20751953125	181.2263183593751	1809.389160156251	1044.824340820313	232.0997772216798	1818.316772460938	1104.8017578125	204.5052337646486	1842.084350585938	1513.205322265625	159.9578094482422	1804.973388671876	1059.507080078125	155.1374206542969	1542.761108398438	78.55677795410159	189.8685607910157	1812.349975585938	1433.73486328125	331.2215576171876	
